<svg width="70" height="91" viewBox="0 0 70 91" fill="none" xmlns="http://www.w3.org/2000/svg">
<path d="M4.10997 90.88C3.17131 90.88 2.40331 90.5813 1.80597 89.984C1.20864 89.3867 0.909973 88.6187 0.909973 87.68V3.2C0.909973 2.26133 1.20864 1.49333 1.80597 0.896004C2.40331 0.298668 3.17131 0 4.10997 0H20.494C21.4326 0 22.2006 0.298668 22.798 0.896004C23.3953 1.49333 23.694 2.26133 23.694 3.2V31.744C25.998 29.0987 28.814 27.008 32.142 25.472C35.5553 23.8507 39.4806 23.04 43.918 23.04C48.8673 23.04 53.262 24.1493 57.102 26.368C61.0273 28.5867 64.0993 31.872 66.318 36.224C68.5366 40.4907 69.646 45.7387 69.646 51.968V87.68C69.646 88.6187 69.3473 89.3867 68.75 89.984C68.1526 90.5813 67.3846 90.88 66.446 90.88H49.934C49.0806 90.88 48.3126 90.5813 47.63 89.984C47.0326 89.3867 46.734 88.6187 46.734 87.68V52.736C46.734 48.7253 45.7526 45.6533 43.79 43.52C41.9126 41.3013 39.0966 40.192 35.342 40.192C31.8433 40.192 29.0273 41.3013 26.894 43.52C24.7606 45.6533 23.694 48.7253 23.694 52.736V87.68C23.694 88.6187 23.3953 89.3867 22.798 89.984C22.2006 90.5813 21.4326 90.88 20.494 90.88H4.10997Z" fill="#3C3633"/>
<path d="M70 8C70 12.4183 66.4183 16 62 16C57.5817 16 54 12.4183 54 8C54 3.58172 57.5817 0 62 0C66.4183 0 70 3.58172 70 8Z" fill="#3C3633"/>
</svg>
