<svg width="80" height="80" viewBox="0 0 80 80" fill="none" xmlns="http://www.w3.org/2000/svg">
<path d="M72.5 1.87498H7.5C6.0252 1.85997 4.60467 2.43064 3.55012 3.46175C2.49557 4.49287 1.89313 5.90021 1.875 7.37498V72.6375C1.89641 74.1101 2.50029 75.5142 3.55448 76.5426C4.60867 77.5711 6.02733 78.14 7.5 78.125H72.5C73.9749 78.1367 75.3945 77.5641 76.4485 76.5323C77.5025 75.5006 78.1052 74.0935 78.125 72.6187V7.35623C78.0987 5.88579 77.4931 4.48515 76.4398 3.45877C75.3865 2.43239 73.9706 1.86322 72.5 1.87498Z" fill="#0076B2"/>
<path d="M13.1625 30.4562H24.4813V66.875H13.1625V30.4562ZM18.825 12.3312C20.1232 12.3312 21.3923 12.7163 22.4716 13.4377C23.5509 14.159 24.3921 15.1843 24.8886 16.3838C25.3851 17.5833 25.5147 18.9031 25.261 20.1763C25.0072 21.4495 24.3816 22.6188 23.4632 23.5363C22.5448 24.4539 21.3749 25.0784 20.1015 25.3309C18.828 25.5834 17.5084 25.4526 16.3093 24.9549C15.1103 24.4572 14.0858 23.6151 13.3655 22.5351C12.6451 21.4551 12.2613 20.1857 12.2625 18.8875C12.2642 17.1481 12.9563 15.4805 14.1868 14.2511C15.4174 13.0218 17.0856 12.3312 18.825 12.3312ZM31.5813 30.4562H42.4313V35.4562H42.5813C44.0938 32.5937 47.7813 29.575 53.2875 29.575C64.75 29.55 66.875 37.0937 66.875 46.875V66.875H55.5563V49.1562C55.5563 44.9375 55.4813 39.5062 49.675 39.5062C43.8688 39.5062 42.8813 44.1062 42.8813 48.8812V66.875H31.5813V30.4562Z" fill="white"/>
</svg>
